<svg width="32" height="16" viewBox="0 0 32 16" fill="none" xmlns="http://www.w3.org/2000/svg">
<path d="M15.9723 2.91554C16.0153 2.95367 16.0453 3.00381 16.0584 3.0592C16.0714 3.11459 16.0668 3.17256 16.0452 3.22531L12.4561 15.0126C12.4109 15.1413 12.3184 15.2488 12.1968 15.3144C12.0978 15.3793 11.9833 15.4176 11.8646 15.4256H0.457048C0.359627 15.421 0.267331 15.3814 0.197782 15.3144C0.156409 15.2769 0.127371 15.2281 0.114381 15.1744C0.101392 15.1206 0.10505 15.0643 0.124867 15.0126L3.72214 3.22531C3.76358 3.095 3.85314 2.98453 3.97329 2.91554C4.07388 2.85531 4.18787 2.81987 4.30548 2.81228H15.713C15.8097 2.81319 15.9024 2.85011 15.9723 2.91554ZM10.0173 12.6376L12.1644 5.60023H6.15274L4.0138 12.6376H10.0173ZM26.8613 3.03468C26.9002 3.07902 26.9489 3.11419 27.0036 3.13756C27.0583 3.16094 27.1177 3.17193 27.1773 3.16971H28.66C28.7164 3.17025 28.772 3.15668 28.8217 3.13027C28.8713 3.10386 28.9132 3.06549 28.9435 3.01879C28.9698 2.98231 28.9885 2.94101 28.9982 2.89735C29.0079 2.85369 29.0086 2.80856 29.0002 2.76462L28.7086 0.667698C28.6808 0.570649 28.6309 0.481033 28.5628 0.405581C28.5238 0.361238 28.4752 0.326072 28.4205 0.302695C28.3658 0.279317 28.3064 0.268333 28.2468 0.270552H26.7641C26.7076 0.270014 26.652 0.283588 26.6024 0.309993C26.5528 0.336399 26.5108 0.374764 26.4805 0.421472C26.4238 0.532669 26.3995 0.604154 26.4238 0.667698L26.7236 2.76462C26.739 2.86673 26.7872 2.96134 26.8613 3.03468ZM31.5686 0.651812C31.5408 0.554757 31.4909 0.465142 31.4227 0.389695C31.3854 0.345514 31.3382 0.310359 31.2848 0.286939C31.2315 0.263525 31.1733 0.252479 31.1149 0.254666H29.6241C29.5686 0.253116 29.5136 0.266324 29.4651 0.292891C29.4166 0.319458 29.3764 0.358403 29.3486 0.405581C29.2947 0.476048 29.2714 0.564561 29.2838 0.651812L29.5836 2.74873C29.6024 2.84976 29.6501 2.94344 29.7213 3.01879C29.7609 3.06227 29.8097 3.09684 29.8643 3.12015C29.9188 3.14345 29.9778 3.15494 30.0373 3.15381H31.5281C31.5835 3.15454 31.638 3.14098 31.6863 3.11449C31.7347 3.088 31.7751 3.04953 31.8035 3.00291C31.8317 2.96737 31.8514 2.92609 31.8612 2.88211C31.8711 2.83814 31.8707 2.79257 31.8602 2.74873L31.5686 0.651812ZM25.5569 3.82897L25.411 2.79639H18.2246C18.1118 2.80249 18.0026 2.83815 17.9086 2.89965C17.849 2.93155 17.797 2.97577 17.7565 3.02925C17.7159 3.08273 17.6877 3.1442 17.6737 3.20942L17.0742 5.17925C17.0502 5.22848 17.042 5.28371 17.0507 5.33758C17.0594 5.39146 17.0845 5.44147 17.1228 5.4811C17.1911 5.54406 17.2803 5.58076 17.3739 5.58436H26.1079L23.9608 12.6218H15.2512C15.1389 12.6243 15.0295 12.6573 14.9353 12.7171C14.8207 12.7884 14.737 12.8987 14.7003 13.0268L14.0926 14.9967C14.0728 15.0472 14.0676 15.1022 14.0776 15.1554C14.0876 15.2087 14.1124 15.2582 14.1493 15.2985C14.2155 15.3657 14.3054 15.4055 14.4005 15.4097H25.8405C25.9588 15.3997 26.0728 15.3616 26.1726 15.2985C26.2923 15.2326 26.382 15.1248 26.4238 14.9967L29.7132 4.22611H26.0106C25.9519 4.22725 25.8935 4.21656 25.8392 4.1947C25.7848 4.17284 25.7357 4.14027 25.6947 4.09902C25.6277 4.02699 25.5803 3.93958 25.5569 3.84486V3.82897Z" fill="white"/>
</svg>
